<svg enable-background="new 0 0 24 24" viewBox="0 0 24 24" xmlns="http://www.w3.org/2000/svg"><path d="m24 4.6c-.9.4-1.9.7-2.8.8 1-.6 1.8-1.6 2.2-2.7-1 .6-2 1-3.1 1.2-.7-.8-1.7-1.3-2.8-1.5s-2.2 0-3.1.5c-1 .5-1.7 1.3-2.2 2.3-.4 1-.6 2.1-.3 3.1-4.2-.2-7.8-2.2-10.3-5.1-.4.7-.6 1.6-.6 2.4 0 1.7.9 3.2 2.2 4.1-.8 0-1.5-.2-2.2-.6v.1c0 1.1.4 2.2 1.1 3.1s1.7 1.5 2.8 1.7c-.7.2-1.5.2-2.2.1.3 1 .9 1.8 1.8 2.4.8.6 1.8 1 2.8 1-1.7 1.4-3.9 2.1-6.1 2.1-.4 0-.8 0-1.2-.1 2.3 1.4 4.9 2.2 7.6 2.2 9.1 0 14-7.5 14-14 0-.2 0-.4 0-.6.9-.7 1.7-1.5 2.4-2.5z" fill="#currentColor"></path></svg>